<svg width="271" height="103" viewBox="0 0 271 103" fill="none" xmlns="http://www.w3.org/2000/svg">
<path d="M8.82 44.82V48.845H16.695V54.06H8.82V58.505H17.745V64H1.96V39.325H17.745V44.82H8.82ZM45.1448 39.325L36.6398 64H27.8548L19.3148 39.325H26.6648L32.2648 57.14L37.8298 39.325H45.1448ZM54.1423 44.82V48.845H62.0173V54.06H54.1423V58.505H63.0673V64H47.2823V39.325H63.0673V44.82H54.1423ZM78.9521 64L74.0521 54.9H73.3171V64H66.4571V39.325H77.2721C79.2554 39.325 80.9354 39.675 82.3121 40.375C83.6887 41.0517 84.7271 41.9967 85.4271 43.21C86.1271 44.4 86.4771 45.7417 86.4771 47.235C86.4771 48.915 86.0104 50.3967 85.0771 51.68C84.1671 52.94 82.8254 53.8383 81.0521 54.375L86.6171 64H78.9521ZM73.3171 50.21H76.7121C77.6454 50.21 78.3454 49.9883 78.8121 49.545C79.2787 49.1017 79.5121 48.46 79.5121 47.62C79.5121 46.8267 79.2671 46.2083 78.7771 45.765C78.3104 45.2983 77.6221 45.065 76.7121 45.065H73.3171V50.21ZM112.032 39.325L103.352 56.16V64H96.4567V56.16L87.7767 39.325H95.6167L99.9567 48.845L104.297 39.325H112.032Z" fill="white"/>
<path d="M137.71 82.33C139.157 82.6567 140.3 83.38 141.14 84.5C142.003 85.5967 142.435 86.8567 142.435 88.28C142.435 90.38 141.712 92.025 140.265 93.215C138.818 94.405 136.788 95 134.175 95H121.96V70.325H133.79C136.31 70.325 138.282 70.885 139.705 72.005C141.152 73.125 141.875 74.7 141.875 76.73C141.875 78.1767 141.49 79.39 140.72 80.37C139.973 81.3267 138.97 81.98 137.71 82.33ZM128.82 80.125H132.285C134.012 80.125 134.875 79.4133 134.875 77.99C134.875 76.52 134.012 75.785 132.285 75.785H128.82V80.125ZM132.81 89.47C134.537 89.47 135.4 88.7467 135.4 87.3C135.4 86.5533 135.167 85.9817 134.7 85.585C134.257 85.1883 133.615 84.99 132.775 84.99H128.82V89.47H132.81ZM152.301 89.75H159.966V95H145.441V70.325H152.301V89.75ZM169.494 75.82V79.845H177.369V85.06H169.494V89.505H178.419V95H162.634V70.325H178.419V75.82H169.494ZM204.664 95H197.804L188.669 81.21V95H181.809V70.325H188.669L197.804 84.29V70.325H204.664V95ZM218.336 70.325C220.926 70.325 223.19 70.85 225.126 71.9C227.086 72.9267 228.591 74.3733 229.641 76.24C230.691 78.1067 231.216 80.2417 231.216 82.645C231.216 85.025 230.68 87.1483 229.606 89.015C228.556 90.8817 227.051 92.3517 225.091 93.425C223.155 94.475 220.903 95 218.336 95H208.571V70.325H218.336ZM217.811 88.945C219.818 88.945 221.393 88.3967 222.536 87.3C223.68 86.2033 224.251 84.6517 224.251 82.645C224.251 80.615 223.68 79.0517 222.536 77.955C221.393 76.835 219.818 76.275 217.811 76.275H215.431V88.945H217.811ZM237.634 95.28C236.42 95.28 235.44 94.9533 234.694 94.3C233.97 93.6233 233.609 92.7717 233.609 91.745C233.609 90.7183 233.97 89.8667 234.694 89.19C235.44 88.5133 236.42 88.175 237.634 88.175C238.824 88.175 239.78 88.5133 240.504 89.19C241.25 89.8667 241.624 90.7183 241.624 91.745C241.624 92.7483 241.25 93.5883 240.504 94.265C239.78 94.9417 238.824 95.28 237.634 95.28ZM260.271 95L255.476 88.035L251.381 95H243.576L251.591 82.365L243.296 70.325H251.381L256.036 77.115L260.026 70.325H267.831L259.921 82.75L268.356 95H260.271Z" fill="#FF1585"/>
<path d="M180.393 39.325V44.785H173.813V64H166.953V44.785H160.443V39.325H180.393ZM205.016 39.325V64H198.156V54.095H189.791V64H182.931V39.325H189.791V48.6H198.156V39.325H205.016ZM215.801 39.325V64H208.941V39.325H215.801ZM242.563 64H235.703L226.568 50.21V64H219.708V39.325H226.568L235.703 53.29V39.325H242.563V64ZM262.221 47.445C261.824 46.7917 261.276 46.29 260.576 45.94C259.899 45.59 259.094 45.415 258.161 45.415C256.434 45.415 255.069 45.975 254.066 47.095C253.086 48.215 252.596 49.72 252.596 51.61C252.596 53.7333 253.121 55.355 254.171 56.475C255.244 57.5717 256.796 58.12 258.826 58.12C261.229 58.12 262.944 57.035 263.971 54.865H257.076V49.93H269.886V56.58C269.349 57.8867 268.556 59.1117 267.506 60.255C266.479 61.3983 265.172 62.3433 263.586 63.09C261.999 63.8133 260.191 64.175 258.161 64.175C255.687 64.175 253.494 63.65 251.581 62.6C249.691 61.5267 248.221 60.045 247.171 58.155C246.144 56.2417 245.631 54.06 245.631 51.61C245.631 49.1833 246.144 47.025 247.171 45.135C248.221 43.2217 249.691 41.74 251.581 40.69C253.471 39.6167 255.652 39.08 258.126 39.08C261.229 39.08 263.796 39.8267 265.826 41.32C267.856 42.8133 269.116 44.855 269.606 47.445H262.221Z" fill="white"/>
<path d="M36.715 7.325L30.66 32H22.225L18.83 16.88L15.365 32H6.93L0.945 7.325H8.365L11.235 24.195L15.12 7.325H22.645L26.425 24.055L29.295 7.325H36.715ZM46.486 12.82V16.845H54.361V22.06H46.486V26.505H55.411V32H39.626V7.325H55.411V12.82H46.486ZM81.25 19.33C82.6967 19.6567 83.84 20.38 84.68 21.5C85.5434 22.5967 85.975 23.8567 85.975 25.28C85.975 27.38 85.2517 29.025 83.805 30.215C82.3584 31.405 80.3284 32 77.715 32H65.5V7.325H77.33C79.85 7.325 81.8217 7.885 83.245 9.005C84.6917 10.125 85.415 11.7 85.415 13.73C85.415 15.1767 85.03 16.39 84.26 17.37C83.5134 18.3267 82.51 18.98 81.25 19.33ZM72.36 17.125H75.825C77.5517 17.125 78.415 16.4133 78.415 14.99C78.415 13.52 77.5517 12.785 75.825 12.785H72.36V17.125ZM76.35 26.47C78.0767 26.47 78.94 25.7467 78.94 24.3C78.94 23.5533 78.7067 22.9817 78.24 22.585C77.7967 22.1883 77.155 21.99 76.315 21.99H72.36V26.47H76.35ZM95.8415 26.75H103.506V32H88.9815V7.325H95.8415V26.75ZM113.034 12.82V16.845H120.909V22.06H113.034V26.505H121.959V32H106.174V7.325H121.959V12.82H113.034ZM148.204 32H141.344L132.209 18.21V32H125.349V7.325H132.209L141.344 21.29V7.325H148.204V32ZM161.876 7.325C164.466 7.325 166.73 7.85 168.666 8.9C170.626 9.92667 172.131 11.3733 173.181 13.24C174.231 15.1067 174.756 17.2417 174.756 19.645C174.756 22.025 174.22 24.1483 173.146 26.015C172.096 27.8817 170.591 29.3517 168.631 30.425C166.695 31.475 164.443 32 161.876 32H152.111V7.325H161.876ZM161.351 25.945C163.358 25.945 164.933 25.3967 166.076 24.3C167.22 23.2033 167.791 21.6517 167.791 19.645C167.791 17.615 167.22 16.0517 166.076 14.955C164.933 13.835 163.358 13.275 161.351 13.275H158.971V25.945H161.351Z" fill="white"/>
<path d="M128.41 41.2041H127.477C127.46 41.0834 127.425 40.9761 127.372 40.8824C127.32 40.7872 127.252 40.7062 127.17 40.6395C127.088 40.5727 126.992 40.5216 126.884 40.4861C126.778 40.4506 126.662 40.4328 126.537 40.4328C126.311 40.4328 126.115 40.4889 125.947 40.6011C125.779 40.7119 125.649 40.8738 125.557 41.0869C125.465 41.2986 125.419 41.5557 125.419 41.8582C125.419 42.1693 125.465 42.4307 125.557 42.6423C125.651 42.854 125.782 43.0138 125.949 43.1217C126.117 43.2297 126.311 43.2836 126.531 43.2836C126.654 43.2836 126.769 43.2673 126.874 43.2346C126.98 43.202 127.075 43.1544 127.157 43.0919C127.24 43.028 127.308 42.9506 127.362 42.8596C127.417 42.7687 127.456 42.665 127.477 42.5486L128.41 42.5528C128.386 42.7531 128.326 42.9463 128.229 43.1324C128.134 43.317 128.005 43.4825 127.843 43.6288C127.683 43.7737 127.491 43.8888 127.268 43.974C127.046 44.0578 126.796 44.0997 126.516 44.0997C126.127 44.0997 125.779 44.0116 125.472 43.8355C125.166 43.6594 124.925 43.4044 124.747 43.0706C124.571 42.7368 124.483 42.3327 124.483 41.8582C124.483 41.3824 124.573 40.9775 124.752 40.6437C124.931 40.3099 125.174 40.0557 125.48 39.8809C125.787 39.7048 126.132 39.6167 126.516 39.6167C126.769 39.6167 127.003 39.6523 127.219 39.7233C127.436 39.7943 127.629 39.898 127.796 40.0344C127.964 40.1693 128.1 40.3348 128.206 40.5308C128.312 40.7268 128.38 40.9513 128.41 41.2041ZM129.055 44.04V40.7673H129.935V41.3383H129.969C130.028 41.1352 130.128 40.9818 130.269 40.8781C130.41 40.773 130.572 40.7204 130.755 40.7204C130.8 40.7204 130.849 40.7233 130.902 40.729C130.954 40.7346 131.001 40.7425 131.04 40.7524V41.5578C130.998 41.545 130.939 41.5336 130.864 41.5237C130.788 41.5138 130.719 41.5088 130.657 41.5088C130.523 41.5088 130.404 41.5379 130.299 41.5961C130.195 41.653 130.113 41.7325 130.052 41.8348C129.992 41.9371 129.962 42.055 129.962 42.1885V44.04H129.055ZM132.849 44.104C132.512 44.104 132.222 44.0358 131.979 43.8994C131.738 43.7616 131.552 43.567 131.421 43.3156C131.291 43.0628 131.225 42.7638 131.225 42.4186C131.225 42.0819 131.291 41.7865 131.421 41.5322C131.552 41.278 131.736 41.0798 131.973 40.9378C132.212 40.7957 132.492 40.7247 132.813 40.7247C133.028 40.7247 133.229 40.7595 133.416 40.8291C133.603 40.8973 133.766 41.0003 133.906 41.1381C134.046 41.2758 134.156 41.4491 134.234 41.6579C134.312 41.8653 134.351 42.1082 134.351 42.3866V42.6359H131.587V42.0734H133.497C133.497 41.9427 133.468 41.827 133.411 41.7261C133.354 41.6253 133.276 41.5464 133.175 41.4896C133.075 41.4314 132.96 41.4023 132.828 41.4023C132.69 41.4023 132.568 41.4342 132.461 41.4981C132.356 41.5606 132.274 41.6452 132.214 41.7517C132.154 41.8568 132.124 41.974 132.122 42.1032V42.6381C132.122 42.8 132.152 42.9399 132.212 43.0578C132.273 43.1757 132.359 43.2666 132.47 43.3305C132.58 43.3944 132.712 43.4264 132.864 43.4264C132.965 43.4264 133.057 43.4122 133.141 43.3838C133.225 43.3554 133.296 43.3128 133.356 43.2559C133.416 43.1991 133.461 43.1295 133.492 43.0471L134.332 43.1025C134.289 43.3042 134.202 43.4804 134.07 43.6309C133.939 43.7801 133.77 43.8966 133.563 43.9804C133.357 44.0628 133.119 44.104 132.849 44.104ZM135.877 44.1018C135.668 44.1018 135.482 44.0656 135.318 43.9932C135.155 43.9193 135.026 43.8106 134.93 43.6672C134.837 43.5223 134.79 43.3419 134.79 43.126C134.79 42.9442 134.823 42.7915 134.89 42.6679C134.957 42.5443 135.048 42.4449 135.163 42.3696C135.278 42.2943 135.408 42.2375 135.555 42.1991C135.703 42.1608 135.857 42.1338 136.019 42.1182C136.21 42.0983 136.363 42.0798 136.479 42.0628C136.596 42.0443 136.68 42.0173 136.733 41.9818C136.786 41.9463 136.812 41.8937 136.812 41.8241V41.8113C136.812 41.6764 136.769 41.572 136.684 41.4981C136.6 41.4243 136.481 41.3873 136.326 41.3873C136.163 41.3873 136.033 41.4236 135.936 41.496C135.84 41.567 135.776 41.6565 135.744 41.7645L134.905 41.6963C134.948 41.4974 135.031 41.3256 135.156 41.1807C135.281 41.0344 135.443 40.9221 135.64 40.844C135.839 40.7645 136.069 40.7247 136.33 40.7247C136.512 40.7247 136.686 40.746 136.852 40.7886C137.02 40.8312 137.168 40.8973 137.298 40.9868C137.428 41.0763 137.531 41.1913 137.607 41.3319C137.682 41.4711 137.72 41.6381 137.72 41.8327V44.04H136.859V43.5862H136.833C136.781 43.6885 136.71 43.7787 136.622 43.8568C136.534 43.9335 136.428 43.9939 136.305 44.0379C136.181 44.0805 136.038 44.1018 135.877 44.1018ZM136.136 43.4754C136.27 43.4754 136.388 43.4491 136.49 43.3966C136.592 43.3426 136.673 43.2702 136.731 43.1792C136.789 43.0883 136.818 42.9854 136.818 42.8703V42.523C136.79 42.5415 136.751 42.5585 136.701 42.5741C136.653 42.5883 136.598 42.6018 136.537 42.6146C136.476 42.626 136.415 42.6366 136.354 42.6466C136.293 42.6551 136.237 42.6629 136.188 42.67C136.081 42.6856 135.988 42.7105 135.908 42.7446C135.829 42.7787 135.767 42.8248 135.723 42.8831C135.679 42.9399 135.657 43.0109 135.657 43.0961C135.657 43.2197 135.702 43.3142 135.791 43.3795C135.882 43.4434 135.997 43.4754 136.136 43.4754ZM140.165 40.7673V41.4491H138.194V40.7673H140.165ZM138.641 39.9832H139.549V43.0344C139.549 43.1182 139.562 43.1835 139.587 43.2304C139.613 43.2758 139.648 43.3078 139.694 43.3263C139.741 43.3447 139.794 43.354 139.856 43.354C139.898 43.354 139.941 43.3504 139.983 43.3433C140.026 43.3348 140.059 43.3284 140.081 43.3241L140.224 43.9996C140.179 44.0138 140.115 44.0301 140.032 44.0486C139.95 44.0684 139.85 44.0805 139.732 44.0848C139.513 44.0933 139.321 44.0642 139.157 43.9974C138.993 43.9307 138.866 43.827 138.775 43.6863C138.684 43.5457 138.64 43.3682 138.641 43.1537V39.9832ZM140.756 44.04V40.7673H141.663V44.04H140.756ZM141.212 40.3454C141.077 40.3454 140.961 40.3007 140.864 40.2112C140.769 40.1203 140.722 40.0116 140.722 39.8852C140.722 39.7602 140.769 39.653 140.864 39.5635C140.961 39.4726 141.077 39.4271 141.212 39.4271C141.347 39.4271 141.462 39.4726 141.557 39.5635C141.653 39.653 141.702 39.7602 141.702 39.8852C141.702 40.0116 141.653 40.1203 141.557 40.2112C141.462 40.3007 141.347 40.3454 141.212 40.3454ZM145.442 40.7673L144.297 44.04H143.275L142.131 40.7673H143.089L143.769 43.1089H143.803L144.481 40.7673H145.442ZM147.292 44.104C146.956 44.104 146.666 44.0358 146.423 43.8994C146.181 43.7616 145.995 43.567 145.865 43.3156C145.734 43.0628 145.669 42.7638 145.669 42.4186C145.669 42.0819 145.734 41.7865 145.865 41.5322C145.995 41.278 146.179 41.0798 146.416 40.9378C146.655 40.7957 146.935 40.7247 147.256 40.7247C147.472 40.7247 147.673 40.7595 147.859 40.8291C148.046 40.8973 148.21 41.0003 148.349 41.1381C148.49 41.2758 148.599 41.4491 148.677 41.6579C148.755 41.8653 148.794 42.1082 148.794 42.3866V42.6359H146.031V42.0734H147.94C147.94 41.9427 147.911 41.827 147.855 41.7261C147.798 41.6253 147.719 41.5464 147.618 41.4896C147.519 41.4314 147.403 41.4023 147.271 41.4023C147.133 41.4023 147.011 41.4342 146.904 41.4981C146.799 41.5606 146.717 41.6452 146.657 41.7517C146.598 41.8568 146.567 41.974 146.566 42.1032V42.6381C146.566 42.8 146.595 42.9399 146.655 43.0578C146.716 43.1757 146.802 43.2666 146.913 43.3305C147.024 43.3944 147.155 43.4264 147.307 43.4264C147.408 43.4264 147.5 43.4122 147.584 43.3838C147.668 43.3554 147.74 43.3128 147.799 43.2559C147.859 43.1991 147.904 43.1295 147.936 43.0471L148.775 43.1025C148.733 43.3042 148.645 43.4804 148.513 43.6309C148.382 43.7801 148.213 43.8966 148.006 43.9804C147.8 44.0628 147.562 44.104 147.292 44.104Z" fill="white"/>
</svg>
