<svg width="24" height="24" viewBox="0 0 24 24" fill="none" xmlns="http://www.w3.org/2000/svg">
<path fill-rule="evenodd" clip-rule="evenodd" d="M13.2245 5.05532C13.0211 5.00649 12.7934 5.00006 12.0121 5.00006H9.80028C8.9437 5.00006 8.36141 5.00084 7.91132 5.03761C7.47291 5.07343 7.2487 5.13836 7.0923 5.21805C6.71598 5.4098 6.41002 5.71576 6.21827 6.09208C6.13858 6.24848 6.07365 6.47269 6.03783 6.9111C6.00106 7.36119 6.00028 7.94348 6.00028 8.80006V12.0001H4.00028L4.00028 8.75876C4.00027 7.95379 4.00026 7.28943 4.04448 6.74824C4.0904 6.18614 4.18897 5.66944 4.43626 5.1841C4.81975 4.43145 5.43167 3.81953 6.18432 3.43604C6.66966 3.18875 7.18636 3.09018 7.74846 3.04426C8.28965 3.00004 8.95401 3.00005 9.75898 3.00006L12.0121 3.00006C12.0465 3.00006 12.0804 3.00005 12.1139 3.00003C12.7489 2.99973 13.2287 2.9995 13.6914 3.11058C14.0996 3.20857 14.4897 3.37019 14.8476 3.5895C15.2534 3.83813 15.5925 4.17756 16.0413 4.62678C16.0649 4.65049 16.0889 4.67451 16.1133 4.69884L18.3015 6.88707C18.3258 6.9114 18.3499 6.9354 18.3736 6.95909C18.8228 7.40789 19.1622 7.74699 19.4108 8.15271C19.6302 8.5106 19.7918 8.90078 19.8898 9.30892C20.0008 9.77162 20.0006 10.2514 20.0003 10.8864C20.0003 10.9199 20.0003 10.9539 20.0003 10.9883V15.2413C20.0003 16.0463 20.0003 16.7107 19.9561 17.2519C19.9102 17.814 19.8116 18.3307 19.5643 18.816C19.1808 19.5687 18.5689 20.1806 17.8162 20.5641C17.3309 20.8114 16.8142 20.9099 16.2521 20.9559C15.7109 21.0001 15.0466 21.0001 14.2416 21.0001H13.0003V19.0001H14.2003C15.0569 19.0001 15.6392 18.9993 16.0892 18.9625C16.5277 18.9267 16.7519 18.8618 16.9083 18.7821C17.2846 18.5903 17.5905 18.2844 17.7823 17.908C17.862 17.7516 17.9269 17.5274 17.9627 17.089C17.9995 16.6389 18.0003 16.0566 18.0003 15.2001V10.9883C18.0003 10.2069 17.9939 9.97922 17.945 9.77581C17.896 9.57174 17.8152 9.37665 17.7056 9.19771C17.5963 9.01935 17.4398 8.85379 16.8873 8.30128L14.6991 6.11306C14.1466 5.56055 13.981 5.40408 13.8026 5.29478C13.6237 5.18513 13.4286 5.10432 13.2245 5.05532Z" fill="black"/>
<path fill-rule="evenodd" clip-rule="evenodd" d="M5.52594 16.5257L6.43107 13.8103H7.56949L8.47463 16.5257L11.19 17.4309V18.5693L8.47463 19.4744L7.56949 22.1898H6.43107L5.52594 19.4744L2.81055 18.5693V17.4309L5.52594 16.5257Z" fill="black"/>
<path fill-rule="evenodd" clip-rule="evenodd" d="M14.0003 5.00006V9.00006H18.0003V11.0001H13.0003C12.448 11.0001 12.0003 10.5523 12.0003 10.0001V5.00006H14.0003Z" fill="black"/>
</svg>
