<svg width="25" height="24" viewBox="0 0 25 24" fill="none" xmlns="http://www.w3.org/2000/svg">
<path d="M20.0257 2.8418L19.2297 5.22963L16.8419 6.02557V6.97425L19.2297 7.7702L20.0257 10.158H20.9744L21.7703 7.7702L24.1581 6.97425V6.02557L21.7703 5.22963L20.9744 2.8418H20.0257Z" fill="black"/>
<path d="M3 3.99991H9V5.99991H7V16.9999H9V18.9999H3V16.9999H5V5.99991H3V3.99991Z" fill="black"/>
<path d="M13.3547 11.3546L14.5257 7.8418H15.4744L16.6453 11.3546L20.1581 12.5256V13.4743L16.6453 14.6452L15.4744 18.158H14.5257L13.3547 14.6452L9.84192 13.4743V12.5256L13.3547 11.3546Z" fill="black"/>
</svg>
