<svg width="13" height="12" viewBox="0 0 13 12" fill="none" xmlns="http://www.w3.org/2000/svg">
<path d="M4 0.399902C3.78783 0.399902 3.58434 0.484188 3.43431 0.634217C3.28429 0.784246 3.2 0.987729 3.2 1.1999C3.2 1.41208 3.28429 1.61556 3.43431 1.76559C3.58434 1.91562 3.78783 1.9999 4 1.9999H8.8C9.01217 1.9999 9.21566 1.91562 9.36568 1.76559C9.51571 1.61556 9.6 1.41208 9.6 1.1999C9.6 0.987729 9.51571 0.784246 9.36568 0.634217C9.21566 0.484188 9.01217 0.399902 8.8 0.399902H4ZM1.6 3.5999C1.6 3.38773 1.68429 3.18425 1.83431 3.03422C1.98434 2.88419 2.18783 2.7999 2.4 2.7999H10.4C10.6122 2.7999 10.8157 2.88419 10.9657 3.03422C11.1157 3.18425 11.2 3.38773 11.2 3.5999C11.2 3.81208 11.1157 4.01556 10.9657 4.16559C10.8157 4.31562 10.6122 4.3999 10.4 4.3999H2.4C2.18783 4.3999 1.98434 4.31562 1.83431 4.16559C1.68429 4.01556 1.6 3.81208 1.6 3.5999ZM0 6.7999C0 6.37556 0.168571 5.96859 0.468629 5.66853C0.768687 5.36847 1.17565 5.1999 1.6 5.1999H11.2C11.6243 5.1999 12.0313 5.36847 12.3314 5.66853C12.6314 5.96859 12.8 6.37556 12.8 6.7999V9.9999C12.8 10.4242 12.6314 10.8312 12.3314 11.1313C12.0313 11.4313 11.6243 11.5999 11.2 11.5999H1.6C1.17565 11.5999 0.768687 11.4313 0.468629 11.1313C0.168571 10.8312 0 10.4242 0 9.9999V6.7999Z" fill="black"/>
</svg>
