<svg width="16" height="16" viewBox="0 0 16 16" fill="none" xmlns="http://www.w3.org/2000/svg">
<path fill-rule="evenodd" clip-rule="evenodd" d="M12.6841 6.88648L14.2085 5.36213L14.2085 5.36212C14.5534 5.01718 14.7259 4.84471 14.8391 4.67161C15.2741 4.00654 15.2741 3.147 14.8391 2.48193C14.7259 2.30882 14.5534 2.13635 14.2085 1.79141L14.2084 1.7914C13.8635 1.44646 13.691 1.27399 13.5179 1.16075C12.8529 0.725712 11.9933 0.725712 11.3283 1.16075C11.1551 1.27399 10.9827 1.44646 10.6377 1.79141L9.09298 3.33615C9.94934 4.81266 11.1877 6.04157 12.6841 6.88648ZM7.63844 4.79069L1.67461 10.7545C1.24955 11.1796 1.03702 11.3921 0.897289 11.6532C0.757554 11.9143 0.698609 12.209 0.580718 12.7985L0.0726407 15.3389C0.00611878 15.6715 -0.0271422 15.8378 0.0674658 15.9324C0.162074 16.027 0.328379 15.9937 0.660989 15.9272L3.20138 15.4191L3.20138 15.4191C3.79083 15.3013 4.08556 15.2423 4.34665 15.1026C4.60775 14.9628 4.82028 14.7503 5.24534 14.3252L11.2258 8.34478C9.78049 7.43527 8.55662 6.21968 7.63844 4.79069Z" fill="white"/>
</svg>
