<svg width="25" height="24" viewBox="0 0 25 24" fill="none" xmlns="http://www.w3.org/2000/svg">
<path fill-rule="evenodd" clip-rule="evenodd" d="M13.7245 5.05532C13.5211 5.00649 13.2934 5.00006 12.5121 5.00006H10.3003C9.4437 5.00006 8.86141 5.00084 8.41132 5.03761C7.97291 5.07343 7.7487 5.13836 7.5923 5.21805C7.21598 5.4098 6.91002 5.71576 6.71827 6.09208C6.63858 6.24848 6.57365 6.47269 6.53783 6.9111C6.50106 7.36119 6.50028 7.94348 6.50028 8.80006V12.0001H4.50028L4.50028 8.75876C4.50027 7.95379 4.50026 7.28943 4.54448 6.74824C4.5904 6.18614 4.68897 5.66944 4.93626 5.1841C5.31975 4.43145 5.93167 3.81953 6.68432 3.43604C7.16966 3.18875 7.68636 3.09018 8.24846 3.04426C8.78965 3.00004 9.45401 3.00005 10.259 3.00006L12.5121 3.00006C12.5465 3.00006 12.5804 3.00005 12.6139 3.00003C13.2489 2.99973 13.7287 2.9995 14.1914 3.11058C14.5996 3.20857 14.9897 3.37019 15.3476 3.5895C15.7534 3.83813 16.0925 4.17756 16.5413 4.62678C16.5649 4.65049 16.5889 4.67451 16.6133 4.69884L18.8015 6.88707C18.8258 6.9114 18.8499 6.9354 18.8736 6.95909C19.3228 7.40789 19.6622 7.74699 19.9108 8.15271C20.1302 8.5106 20.2918 8.90078 20.3898 9.30892C20.5008 9.77162 20.5006 10.2514 20.5003 10.8864C20.5003 10.9199 20.5003 10.9539 20.5003 10.9883V15.2413C20.5003 16.0463 20.5003 16.7107 20.4561 17.2519C20.4102 17.814 20.3116 18.3307 20.0643 18.816C19.6808 19.5687 19.0689 20.1806 18.3162 20.5641C17.8309 20.8114 17.3142 20.9099 16.7521 20.9559C16.2109 21.0001 15.5466 21.0001 14.7416 21.0001H13.5003V19.0001H14.7003C15.5569 19.0001 16.1392 18.9993 16.5892 18.9625C17.0277 18.9267 17.2519 18.8618 17.4083 18.7821C17.7846 18.5903 18.0905 18.2844 18.2823 17.908C18.362 17.7516 18.4269 17.5274 18.4627 17.089C18.4995 16.6389 18.5003 16.0566 18.5003 15.2001V10.9883C18.5003 10.2069 18.4939 9.97922 18.445 9.77581C18.396 9.57174 18.3152 9.37665 18.2056 9.19771C18.0963 9.01935 17.9398 8.85379 17.3873 8.30128L15.1991 6.11306C14.6466 5.56055 14.481 5.40408 14.3026 5.29478C14.1237 5.18513 13.9286 5.10432 13.7245 5.05532Z" fill="white"/>
<path fill-rule="evenodd" clip-rule="evenodd" d="M6.02594 16.5257L6.93107 13.8103H8.06949L8.97463 16.5257L11.69 17.4309V18.5693L8.97463 19.4744L8.06949 22.1898H6.93107L6.02594 19.4744L3.31055 18.5693V17.4309L6.02594 16.5257Z" fill="white"/>
<path fill-rule="evenodd" clip-rule="evenodd" d="M14.5003 5.00006V9.00006H18.5003V11.0001H13.5003C12.948 11.0001 12.5003 10.5523 12.5003 10.0001V5.00006H14.5003Z" fill="white"/>
</svg>
