<svg width="24" height="24" viewBox="0 0 24 24" fill="none" xmlns="http://www.w3.org/2000/svg">
<path d="M12 14L11.4697 14.5303L12 15.0607L12.5303 14.5303L12 14ZM12.75 5C12.75 4.58579 12.4142 4.25 12 4.25C11.5858 4.25 11.25 4.58579 11.25 5L12.75 5ZM6.46967 9.53033L11.4697 14.5303L12.5303 13.4697L7.53033 8.46967L6.46967 9.53033ZM12.5303 14.5303L17.5303 9.53033L16.4697 8.46967L11.4697 13.4697L12.5303 14.5303ZM12.75 14L12.75 5L11.25 5L11.25 14L12.75 14Z" fill="white"/>
<path d="M5 16L5 17C5 18.1046 5.89543 19 7 19L17 19C18.1046 19 19 18.1046 19 17V16" stroke="white" stroke-width="1.5"/>
</svg>
