<svg width="10" height="8" viewBox="0 0 10 8" fill="none" xmlns="http://www.w3.org/2000/svg">
<path d="M3.48795 7.5999C3.40463 7.5999 3.32392 7.58376 3.24581 7.55147C3.1677 7.51918 3.0922 7.46537 3.01929 7.39004L0.379184 4.66179C0.254208 4.53264 0.194324 4.36851 0.199531 4.16941C0.204739 3.97031 0.26983 3.80618 0.394806 3.67703C0.519781 3.54788 0.676001 3.48331 0.863464 3.48331C1.05093 3.48331 1.20715 3.54788 1.33212 3.67703L3.5192 5.93712L8.69006 0.593624C8.81504 0.464476 8.96865 0.399902 9.15091 0.399902C9.33316 0.399902 9.48678 0.464476 9.61176 0.593624C9.73673 0.722772 9.79922 0.881517 9.79922 1.06986C9.79922 1.2582 9.73673 1.41694 9.61176 1.54609L3.95661 7.39004C3.88371 7.46537 3.8082 7.51918 3.73009 7.55147C3.65198 7.58376 3.57127 7.5999 3.48795 7.5999Z" fill="#FF1585"/>
</svg>
