<svg width="130" height="22" viewBox="0 0 130 22" fill="none" xmlns="http://www.w3.org/2000/svg">
<g clip-path="url(#clip0_209_1407)">
<path fill-rule="evenodd" clip-rule="evenodd" d="M51.899 20.864C53.2217 21.4187 54.683 21.696 56.283 21.696C57.883 21.696 59.3443 21.4187 60.667 20.864C61.9897 20.3093 63.1203 19.5307 64.059 18.528C65.019 17.5253 65.755 16.3733 66.267 15.072C66.779 13.7493 67.035 12.3413 67.035 10.848C67.035 9.33333 66.779 7.92533 66.267 6.624C65.755 5.32267 65.019 4.17067 64.059 3.168C63.1203 2.16533 61.9897 1.38667 60.667 0.831999C59.3443 0.277333 57.883 0 56.283 0C54.683 0 53.2217 0.277333 51.899 0.831999C50.5763 1.38667 49.435 2.16533 48.475 3.168C47.5363 4.17067 46.811 5.32267 46.299 6.624C45.787 7.92533 45.531 9.33333 45.531 10.848C45.531 12.3413 45.787 13.7493 46.299 15.072C46.811 16.3733 47.5363 17.5253 48.475 18.528C49.435 19.5307 50.5763 20.3093 51.899 20.864ZM60.731 18.24C59.4937 18.9867 58.011 19.36 56.283 19.36C54.5763 19.36 53.0937 18.9867 51.835 18.24C50.5763 17.472 49.6057 16.448 48.923 15.168C48.2617 13.8667 47.931 12.4267 47.931 10.848C47.931 9.248 48.2617 7.808 48.923 6.528C49.6057 5.248 50.5763 4.23467 51.835 3.488C53.0937 2.72 54.5763 2.336 56.283 2.336C58.011 2.336 59.4937 2.72 60.731 3.488C61.9897 4.23467 62.9497 5.248 63.611 6.528C64.2937 7.808 64.635 9.248 64.635 10.848C64.635 12.4267 64.2937 13.8667 63.611 15.168C62.9497 16.448 61.9897 17.472 60.731 18.24ZM70.875 21.4399V0.255859H73.659L86.747 18.0799V0.255859H89.147V21.4399H86.363L73.275 3.55186V21.4399H70.875ZM94.3438 0.255859V21.4399H109.928V19.1359H96.7437V11.9999H108.52V9.66386H96.7437V2.55986H109.928V0.255859H94.3438ZM122.353 2.55986H126.833V21.4399H129.233V0.255859H122.353V2.55986ZM17.7495 21.4399L26.1975 10.4959L18.3255 0.255859H21.3655L27.6375 8.57586L33.9415 0.255859H36.9815L29.1095 10.4959L37.5575 21.4399H34.5175L27.6375 12.3519L20.7895 21.4399H17.7495ZM0 0.255859V21.4399H10.048C12.4587 21.4399 14.2613 20.9065 15.456 19.8399C16.672 18.7732 17.28 17.4505 17.28 15.8719C17.28 14.8052 17.0773 13.9199 16.672 13.2159C16.2667 12.5119 15.7547 11.9572 15.136 11.5519C14.5387 11.1252 13.9413 10.8159 13.344 10.6239C14.0907 10.2825 14.752 9.74919 15.328 9.02386C15.904 8.27719 16.192 7.22119 16.192 5.85586C16.192 5.00253 15.9787 4.14919 15.552 3.29586C15.1253 2.42119 14.4213 1.69586 13.44 1.11986C12.48 0.543859 11.168 0.255859 9.504 0.255859H0ZM9.504 9.72786H2.4V2.52786H9.76C10.7413 2.52786 11.52 2.69853 12.096 3.03986C12.6933 3.38119 13.12 3.81853 13.376 4.35186C13.6533 4.88519 13.792 5.45053 13.792 6.04786C13.792 6.90119 13.5893 7.60519 13.184 8.15986C12.7787 8.69319 12.2453 9.08786 11.584 9.34386C10.944 9.59986 10.2507 9.72786 9.504 9.72786ZM10.304 19.1679H2.4V11.9039H10.048C11.7333 11.9039 12.96 12.2879 13.728 13.0559C14.496 13.8025 14.88 14.6772 14.88 15.6799C14.88 16.7892 14.4747 17.6532 13.664 18.2719C12.8747 18.8692 11.7547 19.1679 10.304 19.1679Z" fill="white"/>
</g>
<defs>
<clipPath id="clip0_209_1407">
<rect width="130" height="22" fill="white"/>
</clipPath>
</defs>
</svg>
