<svg width="130" height="22" viewBox="0 0 130 22" fill="none" xmlns="http://www.w3.org/2000/svg">
<g clip-path="url(#clip0_361_1980)">
<path fill-rule="evenodd" clip-rule="evenodd" d="M0 0.255859V21.4399H10.048C12.4587 21.4399 14.2613 20.9065 15.456 19.8399C16.672 18.7732 17.28 17.4505 17.28 15.8719C17.28 14.8052 17.0773 13.9199 16.672 13.2159C16.2667 12.5119 15.7547 11.9572 15.136 11.5519C14.5387 11.1252 13.9413 10.8159 13.344 10.6239C14.0907 10.2825 14.752 9.74919 15.328 9.02386C15.904 8.27719 16.192 7.22119 16.192 5.85586C16.192 5.00253 15.9787 4.14919 15.552 3.29586C15.1253 2.42119 14.4213 1.69586 13.44 1.11986C12.48 0.543859 11.168 0.255859 9.504 0.255859H0ZM9.504 9.72786H2.4V2.52786H9.76C10.7413 2.52786 11.52 2.69853 12.096 3.03986C12.6933 3.38119 13.12 3.81853 13.376 4.35186C13.6533 4.88519 13.792 5.45053 13.792 6.04786C13.792 6.90119 13.5893 7.60519 13.184 8.15986C12.7787 8.69319 12.2453 9.08786 11.584 9.34386C10.944 9.59986 10.2507 9.72786 9.504 9.72786ZM10.304 19.1679H2.4V11.9039H10.048C11.7333 11.9039 12.96 12.2879 13.728 13.0559C14.496 13.8025 14.88 14.6772 14.88 15.6799C14.88 16.7892 14.4747 17.6532 13.664 18.2719C12.8747 18.8692 11.7547 19.1679 10.304 19.1679ZM17.7495 21.4399L26.1975 10.4959L18.3255 0.255859H21.3655L27.6375 8.57586L33.9415 0.255859H36.9815L29.1095 10.4959L37.5575 21.4399H34.5175L27.6375 12.3519L20.7895 21.4399H17.7495ZM70.875 0.255859V21.4399H73.275V3.55186L86.363 21.4399H89.147V0.255859H86.747V18.0799L73.659 0.255859H70.875ZM94.3438 21.4399V0.255859H109.928V2.55986H96.7437V9.66386H108.52V11.9999H96.7437V19.1359H109.928V21.4399H94.3438ZM126.833 2.55986H122.353V0.255859H129.233V21.4399H126.833V2.55986Z" fill="white"/>
<path d="M56.752 21.696C55.152 21.696 53.6907 21.4187 52.368 20.864C51.0453 20.3093 49.904 19.5307 48.944 18.528C48.0053 17.5253 47.28 16.3733 46.768 15.072C46.256 13.7493 46 12.3413 46 10.848C46 9.33333 46.256 7.92533 46.768 6.624C47.28 5.32267 48.0053 4.17067 48.944 3.168C49.904 2.16533 51.0453 1.38667 52.368 0.831999C53.6907 0.277333 55.152 0 56.752 0C58.352 0 59.8133 0.277333 61.136 0.831999C62.4587 1.38667 63.5893 2.16533 64.528 3.168C65.488 4.17067 66.224 5.32267 66.736 6.624C67.248 7.92533 67.504 9.33333 67.504 10.848C67.504 12.3413 67.248 13.7493 66.736 15.072C66.224 16.3733 65.488 17.5253 64.528 18.528C63.5893 19.5307 62.4587 20.3093 61.136 20.864C59.8133 21.4187 58.352 21.696 56.752 21.696ZM56.752 19.36C58.48 19.36 59.9627 18.9867 61.2 18.24C62.4587 17.472 63.4187 16.448 64.08 15.168C64.7627 13.8667 65.104 12.4267 65.104 10.848C65.104 9.248 64.7627 7.808 64.08 6.528C63.4187 5.248 62.4587 4.23467 61.2 3.488C59.9627 2.72 58.48 2.336 56.752 2.336C55.0453 2.336 53.5627 2.72 52.304 3.488C51.0453 4.23467 50.0747 5.248 49.392 6.528C48.7307 7.808 48.4 9.248 48.4 10.848C48.4 12.4267 48.7307 13.8667 49.392 15.168C50.0747 16.448 51.0453 17.472 52.304 18.24C53.5627 18.9867 55.0453 19.36 56.752 19.36Z" fill="#FF1585"/>
</g>
<defs>
<clipPath id="clip0_361_1980">
<rect width="130" height="22" fill="white"/>
</clipPath>
</defs>
</svg>
