<svg width="1524" height="260" viewBox="0 0 1524 260" fill="none" xmlns="http://www.w3.org/2000/svg">
<path fill-rule="evenodd" clip-rule="evenodd" d="M612.027 248.042C627.625 254.583 644.858 257.853 663.726 257.853C682.594 257.853 699.827 254.583 715.425 248.042C731.023 241.501 744.356 232.318 755.426 220.494C766.746 208.67 775.426 195.085 781.464 179.739C787.502 164.141 790.52 147.537 790.52 129.927C790.52 112.065 787.502 95.4607 781.464 80.1145C775.426 64.7683 766.746 51.1832 755.426 39.3591C744.356 27.535 731.023 18.3525 715.425 11.8115C699.827 5.27049 682.594 2 663.726 2C644.858 2 627.625 5.27049 612.027 11.8115C596.429 18.3525 582.97 27.535 571.649 39.3591C560.579 51.1832 552.026 64.7683 545.988 80.1145C539.95 95.4607 536.931 112.065 536.931 129.927C536.931 147.537 539.95 164.141 545.988 179.739C552.026 195.085 560.579 208.67 571.649 220.494C582.97 232.318 596.429 241.501 612.027 248.042ZM716.18 217.098C701.588 225.903 684.104 230.306 663.726 230.306C643.6 230.306 626.115 225.903 611.272 217.098C596.429 208.041 584.982 195.966 576.932 180.871C569.133 165.525 565.234 148.543 565.234 129.927C565.234 111.058 569.133 94.077 576.932 78.9824C584.982 63.8878 596.429 51.9379 611.272 43.1328C626.115 34.076 643.6 29.5476 663.726 29.5476C684.104 29.5476 701.588 34.076 716.18 43.1328C731.023 51.9379 742.344 63.8878 750.142 78.9824C758.193 94.077 762.218 111.058 762.218 129.927C762.218 148.543 758.193 165.525 750.142 180.871C742.344 195.966 731.023 208.041 716.18 217.098ZM835.804 254.833V5.01779H868.635L1022.98 215.21V5.01779H1051.28V254.833H1018.45L864.106 43.8864V254.833H835.804ZM1112.56 5.01779V254.833H1296.34V227.663H1140.87V143.511H1279.74V115.963H1140.87V32.1881H1296.34V5.01779H1112.56ZM1442.87 32.1881H1495.7V254.833H1524V5.01779H1442.87V32.1881ZM209.314 254.833L308.938 125.775L216.106 5.01779H251.956L325.92 103.133L400.26 5.01779H436.11L343.278 125.775L442.903 254.833H407.053L325.92 147.662L245.163 254.833H209.314ZM0 5.01779V254.833H118.493C146.921 254.833 168.179 248.544 182.267 235.965C196.607 223.386 203.777 207.789 203.777 189.172C203.777 176.593 201.387 166.153 196.607 157.851C191.827 149.549 185.789 143.008 178.494 138.228C171.449 133.196 164.405 129.548 157.361 127.284C166.166 123.259 173.965 116.969 180.758 108.416C187.55 99.6106 190.947 87.1576 190.947 71.0567C190.947 60.9936 188.431 50.9305 183.399 40.8675C178.368 30.5528 170.066 21.9992 158.493 15.2066C147.172 8.41407 131.7 5.01779 112.077 5.01779H0ZM112.077 116.718H28.3024V31.8107H115.096C126.669 31.8107 135.851 33.8233 142.644 37.8485C149.688 41.8738 154.72 47.0311 157.739 53.3205C161.009 59.6099 162.644 66.2767 162.644 73.3208C162.644 83.3839 160.254 91.6859 155.474 98.2269C150.694 104.516 144.405 109.171 136.606 112.189C129.059 115.208 120.883 116.718 112.077 116.718ZM121.511 228.04H28.3024V142.379H118.493C138.367 142.379 152.833 146.907 161.89 155.964C170.946 164.769 175.475 175.084 175.475 186.908C175.475 199.99 170.695 210.179 161.135 217.474C151.826 224.518 138.619 228.04 121.511 228.04Z" fill="white"/>
<path d="M663.726 257.853C644.857 257.853 627.625 254.583 612.027 248.042C596.429 241.501 582.97 232.318 571.649 220.494C560.579 208.67 552.026 195.085 545.988 179.739C539.95 164.141 536.931 147.537 536.931 129.927C536.931 112.065 539.95 95.4607 545.988 80.1145C552.026 64.7683 560.579 51.1832 571.649 39.3591C582.97 27.535 596.429 18.3525 612.027 11.8115C627.625 5.27049 644.857 2 663.726 2C682.594 2 699.827 5.27049 715.425 11.8115C731.022 18.3525 744.356 27.535 755.425 39.3591C766.746 51.1832 775.426 64.7683 781.464 80.1145C787.501 95.4607 790.52 112.065 790.52 129.927C790.52 147.537 787.501 164.141 781.464 179.739C775.426 195.085 766.746 208.67 755.425 220.494C744.356 232.318 731.022 241.501 715.425 248.042C699.827 254.583 682.594 257.853 663.726 257.853ZM663.726 230.306C684.103 230.306 701.588 225.903 716.179 217.098C731.022 208.041 742.343 195.966 750.142 180.871C758.193 165.525 762.218 148.543 762.218 129.927C762.218 111.058 758.193 94.077 750.142 78.9824C742.343 63.8878 731.022 51.9379 716.179 43.1328C701.588 34.076 684.103 29.5476 663.726 29.5476C643.6 29.5476 626.115 34.076 611.272 43.1328C596.429 51.9379 584.982 63.8878 576.932 78.9824C569.133 94.077 565.233 111.058 565.233 129.927C565.233 148.543 569.133 165.525 576.932 180.871C584.982 195.966 596.429 208.041 611.272 217.098C626.115 225.903 643.6 230.306 663.726 230.306Z" fill="#FF1585"/>
</svg>
